<?xml version="1.0" encoding="UTF-8" standalone="no"?>
<svg
   version="1.0"
   width="16.8375pt"
   height="15.329681pt"
   viewBox="0 0 16.837499 15.329681"
   preserveAspectRatio="xMidYMid meet"
   id="svg209"
   sodipodi:docname="sticker.svg"
   inkscape:version="1.1.1 (c3084ef, 2021-09-22)"
   xmlns:inkscape="http://www.inkscape.org/namespaces/inkscape"
   xmlns:sodipodi="http://sodipodi.sourceforge.net/DTD/sodipodi-0.dtd"
   xmlns="http://www.w3.org/2000/svg"
   xmlns:svg="http://www.w3.org/2000/svg">
  <defs
     id="defs213" />
  <sodipodi:namedview
     id="namedview211"
     pagecolor="#ffffff"
     bordercolor="#666666"
     borderopacity="1.0"
     inkscape:pageshadow="2"
     inkscape:pageopacity="0.0"
     inkscape:pagecheckerboard="0"
     inkscape:document-units="pt"
     showgrid="false"
     inkscape:zoom="1.2808789"
     inkscape:cx="-4.2939268"
     inkscape:cy="103.4446"
     inkscape:window-width="1620"
     inkscape:window-height="969"
     inkscape:window-x="0"
     inkscape:window-y="25"
     inkscape:window-maximized="0"
     inkscape:current-layer="svg209" />
  <metadata
     id="metadata197">
Created by potrace 1.16, written by Peter Selinger 2001-2019
</metadata>
  <g
     id="g309"
     transform="matrix(0.08822935,0,0,0.08822935,-10.149653,-5.398546)">
    <path
       d="m 157.5,63.6 c -0.9,1.4 -1.5,2.6 -1.3,2.7 5.9,2.9 6.3,3.5 8.8,10.2 3.8,10.1 7.3,16.5 15.8,29.3 4.1,6.2 7.2,11.5 6.9,11.8 -1.1,1.1 -6.6,-0.8 -12.4,-4.3 -3.2,-1.9 -11.3,-6.2 -18,-9.5 -18.5,-8.9 -27.2,-18.5 -23.4,-25.7 2,-3.7 0.4,-2.2 -2.8,2.6 -1.7,2.5 -3.1,5.6 -3.1,6.8 0,1.1 -1.4,4 -3.1,6.3 -2.2,2.9 -3.1,5.5 -3.3,8.5 -0.1,3.9 -1.3,6.3 -5.6,11.4 -1.3,1.6 -1.3,5 0.1,5.9 0.7,0.4 0.9,3.3 0.4,8.8 -0.4,6 -0.2,9.2 0.9,12.3 1.2,3.5 1.3,5.4 0.4,10.5 -1.3,7.8 -1.3,34.7 0.1,47.1 0.5,5.1 1.3,13.1 1.6,17.8 0.7,9.4 1.8,12.4 3.5,9.9 0.7,-1 0.8,-5.9 0.4,-13.9 -0.4,-8 -0.3,-12.2 0.3,-11.8 0.6,0.4 1.3,5 1.7,10.4 0.3,5.4 0.9,11.5 1.2,13.5 0.8,4.4 4.2,8.3 8.2,9.2 4.2,1.1 41.4,1.9 47.7,1.1 10.7,-1.3 15.5,-9 15.5,-24.9 V 202 h 13 13 v 7 c 0,10.4 1.7,16.9 5.4,20.6 5,5 9.3,5.7 33.6,5.2 29.8,-0.6 31.1,-1.2 33,-16.2 0.5,-3.9 1,-9.4 1,-12.3 0,-2.8 0.5,-5.5 1.1,-5.9 0.9,-0.5 1,2.6 0.5,11.7 -0.4,7.7 -0.3,13 0.3,13.9 1.9,2.8 2.9,-0.3 4,-11.5 0.6,-6.1 1.5,-13.7 2,-17 1.3,-8.7 1.3,-49.4 0,-55.7 -1.4,-6.5 -3.1,-10 -7.6,-15.6 -2.9,-3.5 -3.5,-5.2 -3.8,-9.8 -0.2,-3.1 -0.8,-6.1 -1.4,-6.7 -0.8,-0.8 -1.1,-0.5 -1.1,0.9 0,1.1 -0.5,2.5 -1.2,3.2 -2.6,2.6 -4.4,1.2 -7.9,-6 -3,-6.4 -14.7,-20.8 -16.9,-20.8 -0.3,0 2,2.7 5.2,6 3.2,3.3 5.8,6.5 5.8,7 0,0.6 0.5,1 1.1,1 0.5,0 0.7,0.4 0.4,1 -0.3,0.5 -0.2,1 0.4,1 1.2,0 2.4,3.2 3.7,10.1 l 0.6,3.7 -4.3,0.7 c -7.5,1.2 -13.2,1 -17.7,-0.4 -3.9,-1.3 -5.8,-1.2 -20,0.9 -8.8,1.3 -21,2.3 -27.7,2.4 -11,0.1 -12.3,-0.1 -15.2,-2.2 C 193.3,115.4 183,102.7 178,94.6 170.7,82.7 162.8,68 161.8,64.5 c -1.3,-4.2 -2,-4.3 -4.3,-0.9 z m -12.2,47.7 c 4.5,2.6 10.3,5 13.9,5.7 7.9,1.7 5.3,2.4 -6.6,1.8 -11.1,-0.5 -19.5,-3.9 -23.8,-9.5 -2.9,-3.8 -3.7,-8.8 -1.5,-9.6 0.6,-0.2 3.2,1.3 5.7,3.4 2.5,2.1 8,5.8 12.3,8.2 z m 120,10.8 c 5.1,1.4 15.8,8.2 18.3,11.6 1.2,1.6 2.9,4.3 3.8,6.1 1,1.9 2,3.2 2.2,2.9 0.3,-0.3 -0.2,-1.9 -1.1,-3.7 -2,-3.8 -1.6,-4.5 1.3,-2.4 3.5,2.4 5.4,10.5 5.8,24.9 0.4,11.6 1.3,20 3.1,27.4 0.6,2.3 0.4,2.4 -3.8,1.8 -2.4,-0.4 -6.2,-1 -8.4,-1.4 -6.7,-1.3 -47.4,-0.9 -52.2,0.5 -2.9,0.9 -5.3,2.6 -7.4,5.2 l -3.2,4 h -13.2 -13.3 l -1.2,-2.9 c -2.4,-6 -12.2,-8.1 -37.5,-8.1 -11.2,0 -19.4,0.5 -24,1.5 -7.3,1.6 -11.5,1.9 -11.5,0.9 0,-0.3 1.1,-6 2.5,-12.6 2.6,-12.6 3.3,-20 1,-11.3 l -1.3,5 0.5,-7.5 c 0.6,-8.9 2.7,-18.9 4.8,-23 2,-3.9 2.6,-3.8 1.4,0.2 -1.4,5.1 -1,5.7 1,1.3 3.8,-8.3 7.6,-12.2 15.7,-16.2 l 7.8,-3.8 h 13 c 7.2,0 22.3,0.4 33.6,0.8 16.1,0.6 22.3,0.5 29,-0.6 10.3,-1.8 28.1,-2.1 33.3,-0.6 z m -79,70.9 c 6.4,1.6 7.9,4 8.2,13.6 0.2,6.7 -0.1,9.7 -2,18.2 -0.6,2.6 -6,6.2 -9.3,6.2 -1.3,0 -2.1,0.3 -1.9,0.7 0.5,0.9 -39.5,-0.1 -42.8,-1 -1.1,-0.3 -3.2,-1 -4.6,-1.5 -1.5,-0.6 -2.9,-0.9 -3,-0.7 -0.2,0.2 -0.4,-0.6 -0.5,-1.8 0,-1.2 -0.4,-6.4 -0.8,-11.5 -0.9,-11.4 0.5,-19.6 3.7,-21.4 1.2,-0.7 4,-1.5 6.2,-1.9 5.8,-1.1 41.1,-0.2 46.8,1.1 z m 101.1,0 c 4.4,2.2 5.9,8.2 5,20 -0.4,5.2 -0.7,10.9 -0.8,12.6 0,1.7 -0.5,3.1 -1.1,3.2 -0.5,0 -2.8,0.6 -5,1.2 -4.5,1.3 -45.6,2.9 -44.8,1.7 0.2,-0.4 -0.6,-0.7 -1.9,-0.7 -4.1,0 -8.6,-3.6 -9.7,-7.7 -1.7,-6.4 -2.3,-18.8 -1.1,-23.2 1.4,-5.1 3.8,-6.7 12,-8 10,-1.5 43.8,-0.8 47.4,0.9 z"
       id="path199"
       style="fill:#000000;stroke:none;stroke-width:0.1" />
    <path
       d="m 159.9,198 c -8.6,1.5 -15.3,6.4 -17.3,12.8 -0.9,2.9 0.7,2.9 2.3,-0.1 1.2,-2.2 6.9,-6.7 8.7,-6.7 0.5,0 0.9,3.1 0.9,7 0,6.2 0.3,7.2 2.6,9.6 l 2.7,2.6 -0.5,-2.6 -0.6,-2.7 4.2,2.2 c 4.8,2.4 7.9,2.1 12.8,-1.7 3.8,-2.9 4.3,-2.9 4.3,-0.7 0.1,3.8 3,-2 3,-6 0,-4.5 0.9,-4.2 5.2,1.6 2.3,3.2 2.9,3.6 2.3,1.7 -1.7,-5.9 -8.9,-13.7 -14.7,-15.9 -3.9,-1.4 -11.1,-1.9 -15.9,-1.1 z"
       id="path201"
       style="fill:#000000;stroke:none;stroke-width:0.1" />
    <path
       d="m 250,198.1 c -7.5,1.5 -16.5,9.7 -18.5,16.9 -0.6,1.9 0,1.5 2.3,-1.7 4.3,-5.8 5.2,-6.1 5.2,-1.7 0,4.2 2.9,9.4 6.5,11.8 3.1,2 4.1,2.1 2.1,0 -0.9,-0.8 -1.6,-2.2 -1.6,-2.9 0,-1.2 0.5,-1.1 2.8,0.1 4.7,2.4 8.1,1.6 13.3,-3.3 2.5,-2.3 2.8,-2.4 3.7,-0.7 0.9,1.7 1.1,1.6 1.7,-0.9 0.4,-1.6 0.5,-4.8 0.2,-7.3 -0.6,-5.8 0.9,-5.8 7.5,0.3 4.3,4.1 5,4.4 4.3,2.3 -3,-9.4 -16.7,-15.4 -29.5,-12.9 z"
       id="path203"
       style="fill:#000000;stroke:none;stroke-width:0.1" />
  </g>
</svg>
